<?xml version="1.0" encoding="UTF-8" standalone="no" ?>
<!DOCTYPE svg PUBLIC "-//W3C//DTD SVG 1.1//EN" "http://www.w3.org/Graphics/SVG/1.1/DTD/svg11.dtd">
<svg xmlns="http://www.w3.org/2000/svg" xmlns:xlink="http://www.w3.org/1999/xlink" version="1.1" width="391" height="391" viewBox="0 0 391 391" xml:space="preserve">
<desc>Created with Fabric.js 5.3.0</desc>
<defs>
</defs>
<g transform="matrix(0.3199996875 0 0 0.3199996875 195.5 195.5)" id="_EGsWMrk2pcEh6oFjPF-W"  >
<path style="stroke: rgb(91,221,84); stroke-width: 1; stroke-dasharray: none; stroke-linecap: butt; stroke-dashoffset: 0; stroke-linejoin: miter; stroke-miterlimit: 4; fill: rgb(91,221,84); fill-rule: nonzero; opacity: 1;"  transform=" translate(-528.6324344807, -520.6205272697)" d="M 592.38 40.56 C 592.38 40.56 627.25 37.5 627.25 37.5 C 627.25 37.5 640.03 37.12 640.03 37.12 C 640.03 37.12 647 37 647 37 C 647 37 656.75 37.5 656.75 37.5 C 659.47 37.47 665 37.84 667.62 38.12 C 667.62 38.12 680.16 39.31 680.16 39.31 C 680.16 39.31 689.06 40.47 689.06 40.47 C 689.06 40.47 695.12 41.25 695.12 41.25 C 695.12 41.25 701.75 42.22 701.75 42.22 C 701.75 42.22 707.66 43.28 707.66 43.28 C 710.65 43.68 716.5 45.16 716.5 45.16 C 716.5 45.16 728.94 47.59 728.94 47.59 C 728.94 47.59 736.81 49.53 736.81 49.53 C 736.9 49.64 741.84 51.06 744.72 51.84 C 748.25 53.03 750.1 53.52 752.51 54.56 C 756.42 55.98 760.67 57.38 761.09 57.59 C 761.53 57.7 768.73 60.42 769.03 60.56 C 770.41 61.12 783.85 66.89 788.53 68.53 C 794.96 71.59 799.43 74.32 804.43 78.18 C 809.56 84.84 804.94 95.52 796 95.95 C 788.78 95.74 775.17 87.36 768.78 83.53 C 760.64 79.62 760.73 79.62 757 79 C 757 79 750.75 77.61 750.75 77.61 C 750.75 77.61 740.98 74.08 740.98 74.08 C 740.98 74.08 737.67 73.05 737.67 73.05 C 733.88 72.13 732.98 71.61 731.38 71.11 C 728.52 70.19 723.11 69.16 722.09 68.72 C 722.09 68.72 718.03 67.62 718.03 67.62 C 718.03 67.62 714.77 66.81 714.77 66.81 C 714.77 66.81 706.95 65.19 706.95 65.19 C 706.95 65.19 699 63.02 699 63.02 C 699 63.02 695.98 62.37 695.98 62.37 C 692.5 61.48 686.72 60.03 686.78 60.09 C 686.78 60.09 679.07 58.87 679.07 58.87 C 679.07 58.87 669.98 57.64 669.98 57.64 C 669.98 57.64 661.33 56.71 661.33 56.71 C 661.33 56.71 655 56 655 56 C 655 56 648.48 55.92 648.48 55.92 C 647.47 55.8 631.61 55.71 631.38 55.72 C 629.88 55.71 615.55 55.43 611.94 55.66 C 609.16 55.67 602.53 56.69 602.09 56.91 C 602.09 56.91 595.96 57.56 595.45 57.72 C 595.08 57.8 582.51 59.15 578.28 59.69 C 578.28 59.69 569.91 60.81 569.91 60.81 C 569.91 60.81 563 61.83 563 61.83 C 563 61.83 555.69 63.06 555.69 63.06 C 555.69 63.06 548 64.38 548 64.38 C 548 64.38 538.72 66.41 538.72 66.41 C 538.72 66.41 529 68.18 529 68.18 C 529 68.18 507.38 74.59 507.38 74.59 C 507.38 74.59 488.66 81.25 488.66 81.25 C 488.66 81.25 477.69 85.44 477.69 85.44 C 477.69 85.44 467.69 89.38 467.69 89.38 C 467.69 89.38 460.62 92.41 460.62 92.41 C 460.62 92.41 450.25 96.81 450.25 96.81 C 450.25 96.81 433.97 104.78 433.97 104.78 C 433.97 104.78 412.81 115.81 412.81 115.81 C 412.81 115.81 400.69 122.81 400.69 122.81 C 400.69 122.81 373 140.06 373 140.06 C 357.88 151.31 344.55 159.95 323.08 176.88 C 323.08 176.88 295.75 201.12 295.75 201.12 C 295.75 201.12 270.81 224.56 270.81 224.56 C 270.81 224.56 261.78 233.74 261.78 233.74 C 258.1 237.67 254.6 244.96 248.02 243.53 C 243.35 242.51 241.47 238.3 243.57 234.09 C 246.14 228.92 253.37 222.51 257.23 218 C 257.23 218 272.5 203 272.5 203 C 272.5 203 307.29 170.75 307.29 170.75 C 307.29 170.75 315.52 164 315.52 164 C 315.52 164 330.17 152.39 330.17 152.39 C 330.17 152.39 341.39 143.83 341.39 143.83 C 341.39 143.83 352.7 135.83 352.7 135.83 C 352.7 135.83 363 128.43 363 128.43 C 363 128.43 377.91 118.91 377.91 118.91 C 377.91 118.91 395.09 108.52 395.09 108.52 C 395.09 108.52 413.83 98.35 413.83 98.35 C 413.83 98.35 429.43 90.39 429.43 90.39 C 429.43 90.39 448.35 81.61 448.35 81.61 C 448.35 81.61 455.96 78.09 455.96 78.09 C 455.96 78.09 465.22 74.52 465.22 74.52 C 465.22 74.52 487.52 66.35 487.52 66.35 C 487.52 66.35 523 55.78 523 55.78 C 523 55.78 542.87 50.09 542.87 50.09 C 542.87 50.09 556.52 46.57 556.52 46.57 C 556.52 46.57 566.78 44.39 566.78 44.39 C 566.78 44.39 577.81 42.25 577.81 42.25 C 577.81 42.25 592.38 40.56 592.38 40.56 Z M 927.31 258 C 923.86 250.11 921.16 242.83 921.18 238 C 921.22 231.3 926.73 224.15 934 225.24 C 938.8 225.96 942.02 229.94 944.12 234 C 947.51 240.54 953.81 256.81 955.38 264 C 955.38 264 957.36 271.64 957.36 271.64 C 957.68 273.36 958.72 278.06 959.16 279.84 C 959.16 279.84 959.77 282.47 959.77 282.47 C 959.77 282.47 960.41 284.59 960.41 284.59 C 960.41 284.59 960.97 287.12 960.97 287.12 C 960.97 287.12 962 291.31 962 291.31 C 961.92 291.36 963.33 298.48 964.18 304 C 964.18 304 965.69 316.59 965.69 316.59 C 966.12 319.41 966.26 319.62 967.47 329.16 C 967.91 332.01 968 333.44 968.3 337 C 968.57 342.83 968.6 344.51 968.82 346 C 969.18 349.93 969.25 352.71 969.3 354.96 C 969.15 361.78 969.68 364.1 970.1 371 C 970.1 371 969.27 399.36 969.27 399.36 C 969.27 399.36 966.73 437.45 966.73 437.45 C 966.73 437.45 963.56 461.5 963.56 461.5 C 963.56 461.5 961.44 472 961.44 472 C 961.44 472 959.57 480.91 959.57 480.91 C 959.57 480.91 958.06 489.12 958.06 489.12 C 958.06 489.12 955.56 499 955.56 499 C 955.56 499 954 506.53 954 506.53 C 952.94 512.12 952.76 510.96 950.75 518.38 C 950.75 518.38 948.16 528.5 948.16 528.5 C 948.16 528.5 946.28 534.09 946.28 534.09 C 946.28 534.09 942.72 547.27 942.72 547.27 C 942.72 547.27 940.54 554.17 940.54 554.17 C 940.54 554.17 936.32 567.83 936.32 567.83 C 936.32 567.83 931.45 578.17 931.45 578.17 C 931.45 578.17 923 597.88 923 597.88 C 923 597.88 916.75 612.5 916.75 612.5 C 916.77 612.33 911.07 623.3 910.88 624.62 C 909.18 627.29 905.28 634.37 902.94 637.14 C 902.34 637.72 900 642 900 642 C 894.29 652.24 888.51 666.09 888.13 666.38 C 888.13 666.38 885.06 670.86 885.06 670.86 C 885.06 670.86 883 674.62 883 674.62 C 883 674.62 877.88 682.75 877.88 682.75 C 874.56 687.49 876.78 684.57 872.03 691.23 C 872.03 691.23 867.92 698.38 867.92 698.38 C 867.92 698.38 860.66 708.57 860.66 708.57 C 859.04 710.53 856.64 713.02 855.17 715.95 C 855.17 715.95 854 717.78 854 717.78 C 853.12 719.45 853.06 719.55 851.72 721.61 C 849.51 723.84 842.42 733.84 839.65 737.5 C 839.65 737.5 832.7 746.73 832.7 746.73 C 832.7 746.73 827.59 752.34 827.59 752.34 C 827.59 752.34 822.5 757.52 822.5 757.52 C 818.03 762.37 816.76 763.65 810.18 770.76 C 810.27 770.57 807.24 774.21 806.31 775.41 C 804.46 777.82 795.03 786.58 792.59 789.46 C 792.59 789.46 786.44 796.41 786.44 796.41 C 786.44 796.41 764.69 816.78 764.69 816.78 C 764.69 816.78 755.42 824.2 755.42 824.2 C 755.42 824.2 745.97 832.38 745.97 832.38 C 742.62 835.07 741.57 835.82 739.54 837.28 C 737.22 838.96 736.39 840.65 731.94 843.94 C 731.94 843.94 726.52 848.22 726.52 848.22 C 726.52 848.22 718.25 854.62 718.25 854.62 C 718.25 854.62 703.28 864.88 703.28 864.88 C 703.28 864.88 692.56 872.19 692.56 872.19 C 692.56 872.19 685.16 877.14 685.16 877.14 C 685.16 877.14 678.44 881.25 678.44 881.25 C 678.44 881.25 663.17 890.33 663.17 890.33 C 663.17 890.33 656.59 894 656.59 894 C 656.59 894 649.75 897.87 649.75 897.87 C 649.75 897.87 631.83 907.76 631.83 907.76 C 631.83 907.76 601 921.54 601 921.54 C 601 921.54 589.31 926.72 589.31 926.72 C 589.31 926.72 581.99 929.95 581.99 929.95 C 581.99 929.95 544.99 941.53 544.99 941.53 C 538.69 943.56 529.56 948.51 523.31 943.27 C 516.72 937.73 524.75 929.66 530.42 927.7 C 530.42 927.7 537.61 925.52 537.61 925.52 C 537.61 925.52 544.3 923.61 544.3 923.61 C 544.3 923.61 554.3 919.83 554.3 919.83 C 554.3 919.83 578.22 911.09 578.22 911.09 C 578.22 911.09 600.04 901.7 600.04 901.7 C 600.04 901.7 612.04 895.87 612.04 895.87 C 612.04 895.87 624.3 889.7 624.3 889.7 C 624.3 889.7 640.91 881 640.91 881 C 640.91 881 652.35 874.3 652.35 874.3 C 652.35 874.3 660.26 869.39 660.26 869.39 C 660.26 869.39 670.87 862.96 670.87 862.96 C 670.87 862.96 682.71 855.38 682.71 855.38 C 682.71 855.38 690.26 850.3 690.26 850.3 C 690.26 850.3 698.48 844.49 698.48 844.49 C 698.48 844.49 706.57 838.17 706.57 838.17 C 706.57 838.17 715.39 831.52 715.39 831.52 C 715.39 831.52 722.52 825.61 722.52 825.61 C 722.52 825.61 732.13 818.04 732.13 818.04 C 732.13 818.04 741.88 809.88 741.88 809.88 C 741.88 809.88 751.7 801.04 751.7 801.04 C 751.7 801.04 762.74 791.13 762.74 791.13 C 762.74 791.13 772.48 781.48 772.48 781.48 C 772.48 781.48 778.74 774.26 778.74 774.26 C 778.74 774.26 790.7 762.26 790.7 762.26 C 790.7 762.26 796.04 756.35 796.04 756.35 C 796.04 756.35 802.8 748.71 802.8 748.71 C 802.8 748.71 810.89 739.07 810.89 739.07 C 814.41 734.63 814.86 734.64 819.65 728.61 C 824.35 722.87 829.22 717.3 833.78 710.7 C 833.78 710.7 841.57 699.61 841.57 699.61 C 841.57 699.61 849.43 688.22 849.43 688.22 C 849.43 688.22 854.57 680.91 854.57 680.91 C 854.57 680.91 859.37 673.72 859.37 673.72 C 859.37 673.72 866.38 663.62 866.38 663.62 C 866.38 663.62 873.65 651.74 873.65 651.74 C 873.65 651.74 878.75 644 878.75 644 C 880.08 641.11 881.82 638.9 883.75 634.88 C 888.2 625.03 885.59 631.41 890.41 620.91 C 892.53 616.34 897.34 608.13 897.34 608.12 C 899.77 604.65 904.21 593.39 904.62 592.5 C 907.06 587.75 908.38 583.66 908.38 583.66 C 910.82 578.65 911.1 576.76 914.12 569.72 C 914.12 569.72 916.44 562.44 916.44 562.44 C 916.44 562.44 919.48 553.84 919.48 553.84 C 919.48 553.84 922.62 545 922.62 545 C 922.62 545 926.32 535 926.32 535 C 926.32 535 928.06 529.56 928.06 529.56 C 928.06 529.56 929.72 523.91 929.72 523.91 C 929.72 523.91 931.24 519.29 931.24 519.29 C 931.24 519.29 933.01 513.91 933.01 513.91 C 933.01 513.91 935.54 503.83 935.54 503.83 C 936.1 501.03 939.25 490.58 939.56 487 C 940.74 482.12 943.44 471.49 943.16 472.12 C 943.16 472.12 945.69 458.06 945.69 458.06 C 947.18 452.17 946.93 452.33 947.71 448.91 C 947.71 448.91 949.83 428 949.83 428 C 949.83 428 950.75 409.62 950.75 409.62 C 950.75 409.62 951 396.82 951 396.82 C 950.74 394.07 950.91 376.36 950.91 376.36 C 950.91 376.36 949.67 361.6 949.67 361.6 C 949.65 358.23 949.61 359.26 949.45 354.95 C 949.11 350.48 948.94 350.21 948.38 344.77 C 948.38 344.77 947.78 340.34 947.78 340.34 C 947.78 340.34 947 337.12 947 337.12 C 945.25 327.91 945.94 329.89 944.48 320.17 C 943.88 316 943.94 316 943.18 312.28 C 941.6 304.47 940.64 299 938.74 291.3 C 938.02 288.52 937.89 287.23 937.13 284.22 C 937.13 284.22 934.7 276.83 934.7 276.83 C 934.7 276.83 930.4 265.84 930.4 265.84 C 930.4 265.84 927.31 258 927.31 258 Z M 88.72 642.81 C 87.88 639.69 87.82 635.84 87.45 632 C 86.66 624.98 87.8 624.87 87.45 620 C 87.45 620 88 602 88 602 C 88 602 90.83 569 90.83 569 C 90.83 569 93.17 544 93.17 544 C 93.17 544 94.84 535 94.84 535 C 94.84 535 96.25 523 96.25 523 C 96.25 523 105.54 485.83 105.54 485.83 C 105.54 485.83 107.13 477 107.13 477 C 107.13 477 114.3 454.28 114.3 454.28 C 114.3 454.28 119.43 438 119.43 438 C 119.43 438 128.04 417 128.04 417 C 130.06 412.05 131.28 405.21 138 405.21 C 144.75 405.21 144.61 411.12 142.47 415.83 C 136.82 428.28 127.61 450.14 124.48 463 C 124.48 463 117.46 484.16 117.46 484.16 C 117.46 484.16 107.75 527 107.75 527 C 107.75 527 105.44 536 105.44 536 C 105.44 536 104.68 544 104.68 544 C 104.68 544 102.32 553 102.32 553 C 102.32 553 99.48 583 99.48 583 C 99.48 583 99.48 593 99.48 593 C 99.48 593 99.48 600 99.48 600 C 99.48 600 99.48 607 99.48 607 C 99.48 607 99.48 615 99.48 615 C 99.48 615 99.48 621 99.48 621 C 99.48 621 99.48 635 99.48 635 C 99.94 642.67 100.88 649.47 101.81 656.06 C 101.81 656.06 102.16 659.28 102.16 659.28 C 102.62 663.28 103.31 670.06 103.72 673.28 C 103.72 673.28 104.5 678.75 104.5 678.75 C 104.94 680.41 104.72 680.28 105.5 682.88 C 105.5 682.88 106.25 685.94 106.25 685.94 C 107.69 696.19 110.98 706.7 113.95 717.16 C 115.42 722.36 115.57 722.34 117 727.91 C 117 727.91 118.58 733.58 118.58 733.58 C 118.58 733.58 120.85 741.67 120.85 741.67 C 120.85 741.67 122 746 122 746 C 122 746 130.27 761.98 130.27 761.98 C 130.27 761.98 132.54 766.72 132.54 766.72 C 133.54 768.98 133.86 770.23 135.49 773.87 C 135.49 773.87 139.54 781.17 139.54 781.17 C 139.54 781.17 142.79 787.83 142.79 787.83 C 142.79 787.83 150 800.83 150 800.83 C 150 800.83 154.13 806.85 154.13 806.85 C 154.13 806.85 158.27 812.91 158.27 812.91 C 158.27 812.91 163.45 820.17 163.45 820.17 C 168.09 827.76 172.34 832.97 177.75 838.83 C 177.75 838.83 183.32 844.67 183.32 844.67 C 183.32 844.67 191.28 853.41 191.28 853.41 C 194.32 856.4 195.55 858.23 198.06 861.53 C 201.12 863.51 205.95 869.72 210.69 872.14 C 217.24 877.12 218.66 879.2 225.16 883.12 C 225.16 883.12 246.08 897.03 246.08 897.03 C 246.08 897.03 260.39 905.7 260.39 905.7 C 260.39 905.7 272.09 912.16 272.09 912.16 C 272.09 912.16 278.38 914.79 278.38 914.79 C 278.38 914.79 290.09 920.17 290.09 920.17 C 295.18 922 299.84 924.23 306.95 927.03 C 306.95 927.03 313.91 929.19 313.91 929.19 C 313.91 929.19 317.98 930.31 317.98 930.31 C 323.11 931.64 328.84 932.2 332.57 936.3 C 335.51 939.53 335.13 946.44 330.86 948.42 C 318.61 948.61 311.81 946.17 304.14 944.42 C 300.91 943.7 293.89 941.28 289.42 939.36 C 289.42 939.36 281.91 935.79 281.91 935.79 C 281.91 935.79 270.46 931.38 270.46 931.38 C 270.46 931.38 254.83 923.29 254.83 923.29 C 250.48 921.19 239.13 913.93 236 912 C 233.02 910.33 228.78 906.71 226 905 C 223.56 904.22 220.58 901.51 215.83 899.25 C 209.22 894.91 195.52 881.73 189.52 876.37 C 186.65 874.04 186.09 872.48 183.99 870.92 C 180.86 868.32 176.32 861.51 172.12 857.31 C 166.19 851.88 166.25 852.5 159.66 844.31 C 159.66 844.31 155 838 155 838 C 155.04 837.94 144.55 824.19 144.23 823.62 C 143.81 823.12 142.84 821.72 142.84 821.72 C 140.17 817.72 138.91 814.96 136 810.58 C 130.55 802.39 125.15 792 121.23 783 C 120.22 778.39 118.67 775.45 117 771 C 117 771 108.2 749.8 108.2 749.8 C 108.2 749.8 107.24 747.25 107.24 747.25 C 105.75 743.23 104.59 737.8 104 734 C 104 734 103 730 103 730 C 103 730 102.11 726.53 101.84 726.2 C 98.98 721.44 100.32 711.99 95.83 706.38 C 95.83 706.38 95.17 704.88 95.17 704.88 C 94.56 703.45 94.45 702.97 93.92 700.89 C 93.92 700.89 93.44 697.95 93.44 697.95 C 93.44 697.95 92 678 92 678 C 92 678 90.31 670.81 90.31 670.81 C 90.31 670.81 88.72 642.81 88.72 642.81 Z M 895 90.63 C 900.71 90.42 904.48 90.96 910 92.38 C 938.27 99.62 942.1 128.01 933.09 151.83 C 922.9 178.77 896.93 200.02 869 206 C 863.77 207.12 862.4 207.75 856.92 207.81 C 850.07 207.88 845.6 207.64 838.99 205.44 C 811.18 196.19 810.29 165.98 820.19 143 C 832.84 113.65 863.53 93.16 895 90.63 Z M 195 273.57 C 198.25 273.06 202.94 272.98 206.17 273.57 C 225.11 277.67 227.8 298.13 225.71 314 C 222.42 339.03 203.3 362.09 178 366.64 C 174.85 367.09 171.6 367.09 168.42 366.64 C 145.81 364.26 144.87 340.36 147.18 323 C 149.53 305.27 165.96 284.73 182 277.39 C 185.38 275.84 191.29 274.28 195 273.57 Z M 423 901.16 C 425.91 901.06 427.07 901.01 430 901.16 C 430 901.16 437 901.16 437 901.16 C 459.36 901.03 475.25 920.61 476.62 942 C 476.62 942 475.54 956 475.54 956 C 471.15 980.96 451.96 999.6 427 1003.68 C 399.75 1008.13 378.41 985.45 379.01 959 C 379.61 932.63 396.57 907.75 423 901.16 Z" stroke-linecap="round" />
</g>
</svg>