<?xml version="1.0" encoding="UTF-8" standalone="no" ?>
<!DOCTYPE svg PUBLIC "-//W3C//DTD SVG 1.1//EN" "http://www.w3.org/Graphics/SVG/1.1/DTD/svg11.dtd">
<svg xmlns="http://www.w3.org/2000/svg" xmlns:xlink="http://www.w3.org/1999/xlink" version="1.1" width="391" height="391" viewBox="0 0 391 391" xml:space="preserve">
<desc>Created with Fabric.js 5.3.0</desc>
<defs>
</defs>
<g transform="matrix(0.3199996875 0 0 0.3199996875 195.5 195.5)" id="4vCY42B6yQEmabC9rwJ6z"  >
<path style="stroke: rgb(255,255,255); stroke-width: 1; stroke-dasharray: none; stroke-linecap: butt; stroke-dashoffset: 0; stroke-linejoin: miter; stroke-miterlimit: 4; fill: rgb(255,255,255); fill-rule: nonzero; opacity: 1;"  transform=" translate(-500.4965593579, -532.8555131971)" d="M 267 484 C 264.9 493.21 260.88 501.57 253 507.21 C 240.31 516.3 211.18 515.12 199.04 505.32 C 187.41 495.94 184.84 482.08 185 468 C 185.14 456.02 189.26 443.11 199 435.53 C 209.13 427.65 220 427.94 232 428 C 249.37 428.08 261.44 437.1 266 454 C 261.46 455.66 254.84 457.02 250 458.19 C 248.17 458.36 245.14 459.1 243.39 458.19 C 241.39 457.58 240.08 454.74 238.61 453.1 C 235.94 450.11 233.02 448.45 229 448.11 C 209.75 446.46 208.69 477.3 215.65 486.97 C 221.48 495.1 233.35 495.08 239.15 486.97 C 241.08 484.27 242.14 481.15 243 478 C 243 478 267 484 267 484 Z M 307 428.44 C 320.33 426.73 337.22 427.4 348 436.33 C 351.11 438.9 354.46 442.49 356.47 446 C 366.53 463.61 363.37 494.43 345.99 506.4 C 335.06 513.93 325.49 513.14 313 513 C 303.43 512.88 293.11 509.66 286.17 502.82 C 272.13 488.98 271 457.34 283.04 442.04 C 289.35 434.02 297.2 430.27 307 428.44 Z M 732 484 C 729.9 493.21 725.88 501.57 718 507.21 C 705.31 516.3 676.18 515.12 664.04 505.32 C 652.41 495.94 649.84 482.08 650 468 C 650.14 456.02 654.26 443.11 664 435.53 C 674.13 427.65 685 427.94 697 428 C 714.37 428.08 726.44 437.1 731 454 C 726.46 455.66 719.84 457.02 715 458.19 C 713.17 458.36 710.14 459.1 708.39 458.19 C 706.39 457.58 705.08 454.74 703.61 453.1 C 700.94 450.11 698.02 448.45 694 448.11 C 674.75 446.46 673.69 477.3 680.65 486.97 C 686.48 495.1 698.35 495.08 704.15 486.97 C 706.08 484.27 707.14 481.15 708 478 C 708 478 732 484 732 484 Z M 375 429 C 375 429 393 429 393 429 C 403.45 429.02 403.89 433.36 409.67 442 C 409.67 442 430 472 430 472 C 430 472 430 429 430 429 C 430 429 456 429 456 429 C 456 429 456 512 456 512 C 456 512 437 512 437 512 C 427 511.93 426.27 506.87 421 499 C 421 499 400 469 400 469 C 400 469 400 512 400 512 C 400 512 375 512 375 512 C 375 512 375 429 375 429 Z M 472 429 C 472 429 490 429 490 429 C 500.45 429.02 500.89 433.36 506.67 442 C 506.67 442 527 472 527 472 C 527 472 527 429 527 429 C 527 429 553 429 553 429 C 553 429 553 512 553 512 C 553 512 534 512 534 512 C 524 511.93 523.27 506.87 518 499 C 518 499 497 469 497 469 C 497 469 497 512 497 512 C 497 512 472 512 472 512 C 472 512 472 429 472 429 Z M 569 429 C 569 429 639 429 639 429 C 639 429 639 448 639 448 C 639 448 596 448 596 448 C 596 448 596 460 596 460 C 596 460 636 460 636 460 C 636 460 636 477 636 477 C 636 477 596 477 596 477 C 596 477 596 493 596 493 C 596 493 640 493 640 493 C 640 493 640 512 640 512 C 640 512 569 512 569 512 C 569 512 569 429 569 429 Z M 737 429 C 737 429 816 429 816 429 C 816 429 816 448 816 448 C 816 448 790 448 790 448 C 790 448 790 512 790 512 C 790 512 763 512 763 512 C 763 512 763 448 763 448 C 763 448 737 448 737 448 C 737 448 737 429 737 429 Z M 313 448.42 C 309.36 449.71 307.4 450.81 305.13 454.09 C 299.52 462.23 296.9 492.96 318 492.99 C 319.86 493 322.21 492.94 324 492.43 C 334.59 489.39 335.1 477.01 335 468 C 334.82 453.21 327.93 446.24 313 448.42 Z M 653 555 C 653 555 723 555 723 555 C 723 555 723 574 723 574 C 723 574 680 574 680 574 C 680 574 680 586 680 586 C 680 586 720 586 720 586 C 720 586 720 603 720 603 C 720 603 680 603 680 603 C 680 603 680 619 680 619 C 680 619 724 619 724 619 C 724 619 724 638 724 638 C 724 638 653 638 653 638 C 653 638 653 555 653 555 Z M 737 555 C 737 555 780 555 780 555 C 784.59 555.01 787.55 554.98 792 556.55 C 812.07 563.62 816.73 586.18 814.28 605 C 813.09 614.18 812.29 619.69 805.82 627 C 795.17 638.99 783.52 638 769 638 C 769 638 737 638 737 638 C 737 638 737 555 737 555 Z M 764 619 C 768.7 618.9 779.16 618.33 782.72 615.35 C 790.06 609.06 789.89 584.85 782.72 578.42 C 778.82 574.83 769.26 574.12 764 574 C 764 574 764 619 764 619 Z" stroke-linecap="round" />
</g>
</svg>